<?xml version="1.0" encoding="UTF-8" standalone="no"?>
<!DOCTYPE svg PUBLIC "-//W3C//DTD SVG 1.1//EN"
 "http://www.w3.org/Graphics/SVG/1.1/DTD/svg11.dtd">
<!-- Generated by graphviz version 8.0.1 (20230327.1645)
 -->
<!-- Pages: 1 -->
<svg width="1064pt" height="392pt"
 viewBox="0.00 0.00 1064.29 392.00" xmlns="http://www.w3.org/2000/svg" xmlns:xlink="http://www.w3.org/1999/xlink">
<g id="graph0" class="graph" transform="scale(1 1) rotate(0) translate(4 388)">
<polygon fill="white" stroke="none" points="-4,4 -4,-388 1060.29,-388 1060.29,4 -4,4"/>
<!-- 2507145725648 -->
<g id="node1" class="node">
<title>2507145725648</title>
<polygon fill="none" stroke="black" points="378.59,-134.5 378.59,-249.5 644.59,-249.5 644.59,-134.5 378.59,-134.5"/>
<text text-anchor="start" x="489.59" y="-235.3" font-family="Times New Roman,serif" font-weight="bold" font-size="14.00">Tensor</text>
<polyline fill="none" stroke="black" points="378.59,-226.5 644.59,-226.5"/>
<text text-anchor="start" x="424.09" y="-211.3" font-family="Times New Roman,serif" font-size="14.00">data=[[&#45;21.3, &#160;7. ], [ &#160;7.4, &#45;4.2]]</text>
<polyline fill="none" stroke="black" points="378.59,-203.5 644.59,-203.5"/>
<text text-anchor="start" x="433.59" y="-188.3" font-family="Times New Roman,serif" font-size="14.00">shape=(2, 2) &#160;&#160;is_leaf=False</text>
<polyline fill="none" stroke="black" points="378.59,-180.5 644.59,-180.5"/>
<text text-anchor="start" x="386.59" y="-165.3" font-family="Times New Roman,serif" font-size="14.00">req_grad=True &#160;&#160;grad_fn=AddmmBackward</text>
<polyline fill="none" stroke="black" points="378.59,-157.5 644.59,-157.5"/>
<text text-anchor="start" x="425.59" y="-142.3" font-family="Times New Roman,serif" font-size="14.00">grad=[[3.83,3.83], [2.05,2.05]]</text>
</g>
<!-- 2507174511088Matmul -->
<g id="node9" class="node">
<title>2507174511088Matmul</title>
<ellipse fill="none" stroke="black" cx="718.94" cy="-125" rx="38.19" ry="18"/>
<text text-anchor="middle" x="718.94" y="-121.3" font-family="Times New Roman,serif" font-size="14.00">Matmul</text>
</g>
<!-- 2507145725648&#45;&gt;2507174511088Matmul -->
<g id="edge7" class="edge">
<title>2507145725648&#45;&gt;2507174511088Matmul</title>
<path fill="none" stroke="black" d="M644.38,-149C655.73,-145.3 666.57,-141.76 676.26,-138.6"/>
<polygon fill="black" stroke="black" points="677.27,-141.63 685.69,-135.2 675.1,-134.97 677.27,-141.63"/>
</g>
<!-- 2507145725648Addmm -->
<g id="node2" class="node">
<title>2507145725648Addmm</title>
<ellipse fill="none" stroke="black" cx="302.3" cy="-192" rx="40.09" ry="18"/>
<text text-anchor="middle" x="302.3" y="-188.3" font-family="Times New Roman,serif" font-size="14.00">Addmm</text>
</g>
<!-- 2507145725648Addmm&#45;&gt;2507145725648 -->
<g id="edge1" class="edge">
<title>2507145725648Addmm&#45;&gt;2507145725648</title>
<path fill="none" stroke="black" d="M342.78,-192C350.54,-192 359.1,-192 368.12,-192"/>
<polygon fill="black" stroke="black" points="367.9,-195.5 377.9,-192 367.9,-188.5 367.9,-195.5"/>
</g>
<!-- 2507145726704 -->
<g id="node3" class="node">
<title>2507145726704</title>
<polygon fill="none" stroke="black" points="389.09,-0.5 389.09,-115.5 634.09,-115.5 634.09,-0.5 389.09,-0.5"/>
<text text-anchor="start" x="489.59" y="-101.3" font-family="Times New Roman,serif" font-weight="bold" font-size="14.00">Tensor</text>
<polyline fill="none" stroke="black" points="389.09,-92.5 634.09,-92.5"/>
<text text-anchor="start" x="426.59" y="-77.3" font-family="Times New Roman,serif" font-size="14.00">data=[[2.45,0.63], [1.38,1.41]]</text>
<polyline fill="none" stroke="black" points="389.09,-69.5 634.09,-69.5"/>
<text text-anchor="start" x="433.59" y="-54.3" font-family="Times New Roman,serif" font-size="14.00">shape=(2, 2) &#160;&#160;is_leaf=False</text>
<polyline fill="none" stroke="black" points="389.09,-46.5 634.09,-46.5"/>
<text text-anchor="start" x="397.09" y="-31.3" font-family="Times New Roman,serif" font-size="14.00">req_grad=True &#160;&#160;grad_fn=SqrtBackward</text>
<polyline fill="none" stroke="black" points="389.09,-23.5 634.09,-23.5"/>
<text text-anchor="start" x="420.59" y="-8.3" font-family="Times New Roman,serif" font-size="14.00">grad=[[&#45;14.3, &#160;3.2], [&#45;14.3, &#160;3.2]]</text>
</g>
<!-- 2507145726704&#45;&gt;2507174511088Matmul -->
<g id="edge9" class="edge">
<title>2507145726704&#45;&gt;2507174511088Matmul</title>
<path fill="none" stroke="black" d="M633.82,-97.56C649.16,-102.56 663.92,-107.37 676.68,-111.54"/>
<polygon fill="black" stroke="black" points="675.3,-115.1 685.89,-114.87 677.47,-108.44 675.3,-115.1"/>
</g>
<!-- 2507145726704Sqrt -->
<g id="node4" class="node">
<title>2507145726704Sqrt</title>
<ellipse fill="none" stroke="black" cx="302.3" cy="-58" rx="27" ry="18"/>
<text text-anchor="middle" x="302.3" y="-54.3" font-family="Times New Roman,serif" font-size="14.00">Sqrt</text>
</g>
<!-- 2507145726704Sqrt&#45;&gt;2507145726704 -->
<g id="edge2" class="edge">
<title>2507145726704Sqrt&#45;&gt;2507145726704</title>
<path fill="none" stroke="black" d="M329.55,-58C342.76,-58 359.86,-58 378.27,-58"/>
<polygon fill="black" stroke="black" points="378.24,-61.5 388.24,-58 378.24,-54.5 378.24,-61.5"/>
</g>
<!-- 2507175538944 -->
<g id="node5" class="node">
<title>2507175538944</title>
<polygon fill="none" stroke="black" points="0,-0.5 0,-115.5 226,-115.5 226,-0.5 0,-0.5"/>
<text text-anchor="start" x="91" y="-101.3" font-family="Times New Roman,serif" font-weight="bold" font-size="14.00">Tensor</text>
<polyline fill="none" stroke="black" points="0,-92.5 226,-92.5"/>
<text text-anchor="start" x="44.5" y="-77.3" font-family="Times New Roman,serif" font-size="14.00">data=[[6. ,0.4], [1.9,2. ]]</text>
<polyline fill="none" stroke="black" points="0,-69.5 226,-69.5"/>
<text text-anchor="start" x="36.5" y="-54.3" font-family="Times New Roman,serif" font-size="14.00">shape=(2, 2) &#160;&#160;is_leaf=True</text>
<polyline fill="none" stroke="black" points="0,-46.5 226,-46.5"/>
<text text-anchor="start" x="24" y="-31.3" font-family="Times New Roman,serif" font-size="14.00">req_grad=True &#160;&#160;grad_fn=None</text>
<polyline fill="none" stroke="black" points="0,-23.5 226,-23.5"/>
<text text-anchor="start" x="8" y="-8.3" font-family="Times New Roman,serif" font-size="14.00">grad=[[&#45;17.97,&#45;12.52], [ &#45;1.89, &#160;4.43]]</text>
</g>
<!-- 2507175538944&#45;&gt;2507145725648Addmm -->
<g id="edge4" class="edge">
<title>2507175538944&#45;&gt;2507145725648Addmm</title>
<path fill="none" stroke="black" d="M212.43,-115.42C217.07,-118.58 221.62,-121.78 226,-125 243.92,-138.16 262.6,-154.76 276.88,-168.14"/>
<polygon fill="black" stroke="black" points="274.07,-170.25 283.73,-174.6 278.89,-165.18 274.07,-170.25"/>
</g>
<!-- 2507175538944&#45;&gt;2507145726704Sqrt -->
<g id="edge6" class="edge">
<title>2507175538944&#45;&gt;2507145726704Sqrt</title>
<path fill="none" stroke="black" d="M225.93,-58C239.64,-58 252.8,-58 264.19,-58"/>
<polygon fill="black" stroke="black" points="263.93,-61.5 273.93,-58 263.93,-54.5 263.93,-61.5"/>
</g>
<!-- 2507175539184 -->
<g id="node6" class="node">
<title>2507175539184</title>
<polygon fill="none" stroke="black" points="10,-268.5 10,-383.5 216,-383.5 216,-268.5 10,-268.5"/>
<text text-anchor="start" x="91" y="-369.3" font-family="Times New Roman,serif" font-weight="bold" font-size="14.00">Tensor</text>
<polyline fill="none" stroke="black" points="10,-360.5 216,-360.5"/>
<text text-anchor="start" x="46.5" y="-345.3" font-family="Times New Roman,serif" font-size="14.00">data=[[&#45;5., 3.], [ 2.,&#45;4.]]</text>
<polyline fill="none" stroke="black" points="10,-337.5 216,-337.5"/>
<text text-anchor="start" x="36.5" y="-322.3" font-family="Times New Roman,serif" font-size="14.00">shape=(2, 2) &#160;&#160;is_leaf=True</text>
<polyline fill="none" stroke="black" points="10,-314.5 216,-314.5"/>
<text text-anchor="start" x="24" y="-299.3" font-family="Times New Roman,serif" font-size="14.00">req_grad=True &#160;&#160;grad_fn=None</text>
<polyline fill="none" stroke="black" points="10,-291.5 216,-291.5"/>
<text text-anchor="start" x="18" y="-276.3" font-family="Times New Roman,serif" font-size="14.00">grad=[[24.5 ,14.93], [13.1 , 7.98]]</text>
</g>
<!-- 2507175539184&#45;&gt;2507145725648Addmm -->
<g id="edge5" class="edge">
<title>2507175539184&#45;&gt;2507145725648Addmm</title>
<path fill="none" stroke="black" d="M212.43,-268.58C217.07,-265.42 221.62,-262.22 226,-259 243.92,-245.84 262.6,-229.24 276.88,-215.86"/>
<polygon fill="black" stroke="black" points="278.89,-218.82 283.73,-209.4 274.07,-213.75 278.89,-218.82"/>
</g>
<!-- 2507145725360 -->
<g id="node7" class="node">
<title>2507145725360</title>
<polygon fill="none" stroke="black" points="16,-134.5 16,-249.5 210,-249.5 210,-134.5 16,-134.5"/>
<text text-anchor="start" x="91" y="-235.3" font-family="Times New Roman,serif" font-weight="bold" font-size="14.00">Tensor</text>
<polyline fill="none" stroke="black" points="16,-226.5 210,-226.5"/>
<text text-anchor="start" x="91.5" y="-211.3" font-family="Times New Roman,serif" font-size="14.00">data=3.</text>
<polyline fill="none" stroke="black" points="16,-203.5 210,-203.5"/>
<text text-anchor="start" x="47" y="-188.3" font-family="Times New Roman,serif" font-size="14.00">shape=() &#160;&#160;is_leaf=True</text>
<polyline fill="none" stroke="black" points="16,-180.5 210,-180.5"/>
<text text-anchor="start" x="24" y="-165.3" font-family="Times New Roman,serif" font-size="14.00">req_grad=True &#160;&#160;grad_fn=None</text>
<polyline fill="none" stroke="black" points="16,-157.5 210,-157.5"/>
<text text-anchor="start" x="81" y="-142.3" font-family="Times New Roman,serif" font-size="14.00">grad=11.75</text>
</g>
<!-- 2507145725360&#45;&gt;2507145725648Addmm -->
<g id="edge8" class="edge">
<title>2507145725360&#45;&gt;2507145725648Addmm</title>
<path fill="none" stroke="black" d="M209.84,-192C224.04,-192 238.18,-192 250.94,-192"/>
<polygon fill="black" stroke="black" points="250.76,-195.5 260.76,-192 250.76,-188.5 250.76,-195.5"/>
</g>
<!-- 2507174511088 -->
<g id="node8" class="node">
<title>2507174511088</title>
<polygon fill="none" stroke="black" points="793.29,-67.5 793.29,-182.5 1056.29,-182.5 1056.29,-67.5 793.29,-67.5"/>
<text text-anchor="start" x="902.79" y="-168.3" font-family="Times New Roman,serif" font-weight="bold" font-size="14.00">Tensor</text>
<polyline fill="none" stroke="black" points="793.29,-159.5 1056.29,-159.5"/>
<text text-anchor="start" x="819.29" y="-144.3" font-family="Times New Roman,serif" font-size="14.00">data=[[&#45;47.49, 14.49], [&#45;18.89, &#160;3.71]]</text>
<polyline fill="none" stroke="black" points="793.29,-136.5 1056.29,-136.5"/>
<text text-anchor="start" x="846.79" y="-121.3" font-family="Times New Roman,serif" font-size="14.00">shape=(2, 2) &#160;&#160;is_leaf=False</text>
<polyline fill="none" stroke="black" points="793.29,-113.5 1056.29,-113.5"/>
<text text-anchor="start" x="801.29" y="-98.3" font-family="Times New Roman,serif" font-size="14.00">req_grad=True &#160;&#160;grad_fn=MatmulBackward</text>
<polyline fill="none" stroke="black" points="793.29,-90.5 1056.29,-90.5"/>
<text text-anchor="start" x="865.79" y="-75.3" font-family="Times New Roman,serif" font-size="14.00">grad=[[1.,1.], [1.,1.]]</text>
</g>
<!-- 2507174511088Matmul&#45;&gt;2507174511088 -->
<g id="edge3" class="edge">
<title>2507174511088Matmul&#45;&gt;2507174511088</title>
<path fill="none" stroke="black" d="M757.33,-125C765.09,-125 773.71,-125 782.81,-125"/>
<polygon fill="black" stroke="black" points="782.7,-128.5 792.7,-125 782.7,-121.5 782.7,-128.5"/>
</g>
</g>
</svg>
