<?xml version="1.0" encoding="UTF-8" standalone="no"?>
<!DOCTYPE svg PUBLIC "-//W3C//DTD SVG 1.1//EN"
 "http://www.w3.org/Graphics/SVG/1.1/DTD/svg11.dtd">
<!-- Generated by graphviz version 8.0.1 (20230327.1645)
 -->
<!-- Pages: 1 -->
<svg width="960pt" height="392pt"
 viewBox="0.00 0.00 960.29 392.00" xmlns="http://www.w3.org/2000/svg" xmlns:xlink="http://www.w3.org/1999/xlink">
<g id="graph0" class="graph" transform="scale(1 1) rotate(0) translate(4 388)">
<polygon fill="white" stroke="none" points="-4,4 -4,-388 956.29,-388 956.29,4 -4,4"/>
<!-- 2297232130592 -->
<g id="node1" class="node">
<title>2297232130592</title>
<polygon fill="none" stroke="black" points="21.5,-268.5 21.5,-383.5 204.5,-383.5 204.5,-268.5 21.5,-268.5"/>
<text text-anchor="start" x="91" y="-369.3" font-family="Times New Roman,serif" font-weight="bold" font-size="14.00">Tensor</text>
<polyline fill="none" stroke="black" points="21.5,-360.5 204.5,-360.5"/>
<text text-anchor="start" x="91.5" y="-345.3" font-family="Times New Roman,serif" font-size="14.00">data=3.</text>
<polyline fill="none" stroke="black" points="21.5,-337.5 204.5,-337.5"/>
<text text-anchor="start" x="29.5" y="-322.3" font-family="Times New Roman,serif" font-size="14.00">req_grad=True &#160;&#160;is_leaf=True</text>
<polyline fill="none" stroke="black" points="21.5,-314.5 204.5,-314.5"/>
<text text-anchor="start" x="81" y="-299.3" font-family="Times New Roman,serif" font-size="14.00">grad=11.75</text>
<polyline fill="none" stroke="black" points="21.5,-291.5 204.5,-291.5"/>
<text text-anchor="start" x="72" y="-276.3" font-family="Times New Roman,serif" font-size="14.00">grad_fn=None</text>
</g>
<!-- 2297203703760Addmm -->
<g id="node6" class="node">
<title>2297203703760Addmm</title>
<ellipse fill="none" stroke="black" cx="302.3" cy="-192" rx="40.09" ry="18"/>
<text text-anchor="middle" x="302.3" y="-188.3" font-family="Times New Roman,serif" font-size="14.00">Addmm</text>
</g>
<!-- 2297232130592&#45;&gt;2297203703760Addmm -->
<g id="edge7" class="edge">
<title>2297232130592&#45;&gt;2297203703760Addmm</title>
<path fill="none" stroke="black" d="M204.23,-274.07C211.71,-269.15 219.06,-264.09 226,-259 243.92,-245.84 262.6,-229.24 276.88,-215.86"/>
<polygon fill="black" stroke="black" points="278.89,-218.82 283.73,-209.4 274.07,-213.75 278.89,-218.82"/>
</g>
<!-- 2297203738224 -->
<g id="node2" class="node">
<title>2297203738224</title>
<polygon fill="none" stroke="black" points="725.29,-67.5 725.29,-182.5 952.29,-182.5 952.29,-67.5 725.29,-67.5"/>
<text text-anchor="start" x="816.79" y="-168.3" font-family="Times New Roman,serif" font-weight="bold" font-size="14.00">Tensor</text>
<polyline fill="none" stroke="black" points="725.29,-159.5 952.29,-159.5"/>
<text text-anchor="start" x="733.29" y="-144.3" font-family="Times New Roman,serif" font-size="14.00">data=[[&#45;47.49, 14.49], [&#45;18.89, &#160;3.71]]</text>
<polyline fill="none" stroke="black" points="725.29,-136.5 952.29,-136.5"/>
<text text-anchor="start" x="753.79" y="-121.3" font-family="Times New Roman,serif" font-size="14.00">req_grad=True &#160;&#160;is_leaf=False</text>
<polyline fill="none" stroke="black" points="725.29,-113.5 952.29,-113.5"/>
<text text-anchor="start" x="779.79" y="-98.3" font-family="Times New Roman,serif" font-size="14.00">grad=[[1.,1.], [1.,1.]]</text>
<polyline fill="none" stroke="black" points="725.29,-90.5 952.29,-90.5"/>
<text text-anchor="start" x="763.29" y="-75.3" font-family="Times New Roman,serif" font-size="14.00">grad_fn=MatmulBackward</text>
</g>
<!-- 2297203738224Matmul -->
<g id="node3" class="node">
<title>2297203738224Matmul</title>
<ellipse fill="none" stroke="black" cx="650.94" cy="-125" rx="38.19" ry="18"/>
<text text-anchor="middle" x="650.94" y="-121.3" font-family="Times New Roman,serif" font-size="14.00">Matmul</text>
</g>
<!-- 2297203738224Matmul&#45;&gt;2297203738224 -->
<g id="edge1" class="edge">
<title>2297203738224Matmul&#45;&gt;2297203738224</title>
<path fill="none" stroke="black" d="M689.55,-125C697.16,-125 705.56,-125 714.37,-125"/>
<polygon fill="black" stroke="black" points="714.29,-128.5 724.29,-125 714.29,-121.5 714.29,-128.5"/>
</g>
<!-- 2297232132944 -->
<g id="node4" class="node">
<title>2297232132944</title>
<polygon fill="none" stroke="black" points="0,-0.5 0,-115.5 226,-115.5 226,-0.5 0,-0.5"/>
<text text-anchor="start" x="91" y="-101.3" font-family="Times New Roman,serif" font-weight="bold" font-size="14.00">Tensor</text>
<polyline fill="none" stroke="black" points="0,-92.5 226,-92.5"/>
<text text-anchor="start" x="44.5" y="-77.3" font-family="Times New Roman,serif" font-size="14.00">data=[[6. ,0.4], [1.9,2. ]]</text>
<polyline fill="none" stroke="black" points="0,-69.5 226,-69.5"/>
<text text-anchor="start" x="29.5" y="-54.3" font-family="Times New Roman,serif" font-size="14.00">req_grad=True &#160;&#160;is_leaf=True</text>
<polyline fill="none" stroke="black" points="0,-46.5 226,-46.5"/>
<text text-anchor="start" x="8" y="-31.3" font-family="Times New Roman,serif" font-size="14.00">grad=[[&#45;17.97,&#45;12.52], [ &#45;1.89, &#160;4.43]]</text>
<polyline fill="none" stroke="black" points="0,-23.5 226,-23.5"/>
<text text-anchor="start" x="72" y="-8.3" font-family="Times New Roman,serif" font-size="14.00">grad_fn=None</text>
</g>
<!-- 2297232132944&#45;&gt;2297203703760Addmm -->
<g id="edge5" class="edge">
<title>2297232132944&#45;&gt;2297203703760Addmm</title>
<path fill="none" stroke="black" d="M212.43,-115.42C217.07,-118.58 221.62,-121.78 226,-125 243.92,-138.16 262.6,-154.76 276.88,-168.14"/>
<polygon fill="black" stroke="black" points="274.07,-170.25 283.73,-174.6 278.89,-165.18 274.07,-170.25"/>
</g>
<!-- 2297203738608Sqrt -->
<g id="node9" class="node">
<title>2297203738608Sqrt</title>
<ellipse fill="none" stroke="black" cx="302.3" cy="-58" rx="27" ry="18"/>
<text text-anchor="middle" x="302.3" y="-54.3" font-family="Times New Roman,serif" font-size="14.00">Sqrt</text>
</g>
<!-- 2297232132944&#45;&gt;2297203738608Sqrt -->
<g id="edge9" class="edge">
<title>2297232132944&#45;&gt;2297203738608Sqrt</title>
<path fill="none" stroke="black" d="M225.93,-58C239.64,-58 252.8,-58 264.19,-58"/>
<polygon fill="black" stroke="black" points="263.93,-61.5 273.93,-58 263.93,-54.5 263.93,-61.5"/>
</g>
<!-- 2297203703760 -->
<g id="node5" class="node">
<title>2297203703760</title>
<polygon fill="none" stroke="black" points="382.09,-134.5 382.09,-249.5 573.09,-249.5 573.09,-134.5 382.09,-134.5"/>
<text text-anchor="start" x="455.59" y="-235.3" font-family="Times New Roman,serif" font-weight="bold" font-size="14.00">Tensor</text>
<polyline fill="none" stroke="black" points="382.09,-226.5 573.09,-226.5"/>
<text text-anchor="start" x="390.09" y="-211.3" font-family="Times New Roman,serif" font-size="14.00">data=[[&#45;21.3, &#160;7. ], [ &#160;7.4, &#45;4.2]]</text>
<polyline fill="none" stroke="black" points="382.09,-203.5 573.09,-203.5"/>
<text text-anchor="start" x="392.59" y="-188.3" font-family="Times New Roman,serif" font-size="14.00">req_grad=True &#160;&#160;is_leaf=False</text>
<polyline fill="none" stroke="black" points="382.09,-180.5 573.09,-180.5"/>
<text text-anchor="start" x="391.59" y="-165.3" font-family="Times New Roman,serif" font-size="14.00">grad=[[3.83,3.83], [2.05,2.05]]</text>
<polyline fill="none" stroke="black" points="382.09,-157.5 573.09,-157.5"/>
<text text-anchor="start" x="400.59" y="-142.3" font-family="Times New Roman,serif" font-size="14.00">grad_fn=AddmmBackward</text>
</g>
<!-- 2297203703760&#45;&gt;2297203738224Matmul -->
<g id="edge8" class="edge">
<title>2297203703760&#45;&gt;2297203738224Matmul</title>
<path fill="none" stroke="black" d="M572.79,-155.17C586.12,-149.95 599.18,-144.85 610.65,-140.36"/>
<polygon fill="black" stroke="black" points="611.66,-143.33 619.7,-136.43 609.11,-136.81 611.66,-143.33"/>
</g>
<!-- 2297203703760Addmm&#45;&gt;2297203703760 -->
<g id="edge2" class="edge">
<title>2297203703760Addmm&#45;&gt;2297203703760</title>
<path fill="none" stroke="black" d="M342.62,-192C351.51,-192 361.37,-192 371.58,-192"/>
<polygon fill="black" stroke="black" points="371.32,-195.5 381.32,-192 371.32,-188.5 371.32,-195.5"/>
</g>
<!-- 2297232133088 -->
<g id="node7" class="node">
<title>2297232133088</title>
<polygon fill="none" stroke="black" points="10,-134.5 10,-249.5 216,-249.5 216,-134.5 10,-134.5"/>
<text text-anchor="start" x="91" y="-235.3" font-family="Times New Roman,serif" font-weight="bold" font-size="14.00">Tensor</text>
<polyline fill="none" stroke="black" points="10,-226.5 216,-226.5"/>
<text text-anchor="start" x="46.5" y="-211.3" font-family="Times New Roman,serif" font-size="14.00">data=[[&#45;5., 3.], [ 2.,&#45;4.]]</text>
<polyline fill="none" stroke="black" points="10,-203.5 216,-203.5"/>
<text text-anchor="start" x="29.5" y="-188.3" font-family="Times New Roman,serif" font-size="14.00">req_grad=True &#160;&#160;is_leaf=True</text>
<polyline fill="none" stroke="black" points="10,-180.5 216,-180.5"/>
<text text-anchor="start" x="18" y="-165.3" font-family="Times New Roman,serif" font-size="14.00">grad=[[24.5 ,14.93], [13.1 , 7.98]]</text>
<polyline fill="none" stroke="black" points="10,-157.5 216,-157.5"/>
<text text-anchor="start" x="72" y="-142.3" font-family="Times New Roman,serif" font-size="14.00">grad_fn=None</text>
</g>
<!-- 2297232133088&#45;&gt;2297203703760Addmm -->
<g id="edge4" class="edge">
<title>2297232133088&#45;&gt;2297203703760Addmm</title>
<path fill="none" stroke="black" d="M215.87,-192C227.97,-192 239.88,-192 250.8,-192"/>
<polygon fill="black" stroke="black" points="250.77,-195.5 260.77,-192 250.77,-188.5 250.77,-195.5"/>
</g>
<!-- 2297203738608 -->
<g id="node8" class="node">
<title>2297203738608</title>
<polygon fill="none" stroke="black" points="378.59,-0.5 378.59,-115.5 576.59,-115.5 576.59,-0.5 378.59,-0.5"/>
<text text-anchor="start" x="455.59" y="-101.3" font-family="Times New Roman,serif" font-weight="bold" font-size="14.00">Tensor</text>
<polyline fill="none" stroke="black" points="378.59,-92.5 576.59,-92.5"/>
<text text-anchor="start" x="392.59" y="-77.3" font-family="Times New Roman,serif" font-size="14.00">data=[[2.45,0.63], [1.38,1.41]]</text>
<polyline fill="none" stroke="black" points="378.59,-69.5 576.59,-69.5"/>
<text text-anchor="start" x="392.59" y="-54.3" font-family="Times New Roman,serif" font-size="14.00">req_grad=True &#160;&#160;is_leaf=False</text>
<polyline fill="none" stroke="black" points="378.59,-46.5 576.59,-46.5"/>
<text text-anchor="start" x="386.59" y="-31.3" font-family="Times New Roman,serif" font-size="14.00">grad=[[&#45;14.3, &#160;3.2], [&#45;14.3, &#160;3.2]]</text>
<polyline fill="none" stroke="black" points="378.59,-23.5 576.59,-23.5"/>
<text text-anchor="start" x="411.09" y="-8.3" font-family="Times New Roman,serif" font-size="14.00">grad_fn=SqrtBackward</text>
</g>
<!-- 2297203738608&#45;&gt;2297203738224Matmul -->
<g id="edge6" class="edge">
<title>2297203738608&#45;&gt;2297203738224Matmul</title>
<path fill="none" stroke="black" d="M576.28,-96.2C588.45,-100.96 600.3,-105.59 610.8,-109.7"/>
<polygon fill="black" stroke="black" points="609.24,-113.23 619.82,-113.62 611.79,-106.71 609.24,-113.23"/>
</g>
<!-- 2297203738608Sqrt&#45;&gt;2297203738608 -->
<g id="edge3" class="edge">
<title>2297203738608Sqrt&#45;&gt;2297203738608</title>
<path fill="none" stroke="black" d="M329.62,-58C340.41,-58 353.67,-58 367.78,-58"/>
<polygon fill="black" stroke="black" points="367.71,-61.5 377.71,-58 367.71,-54.5 367.71,-61.5"/>
</g>
</g>
</svg>
