<?xml version="1.0" encoding="UTF-8" standalone="no"?>
<!DOCTYPE svg PUBLIC "-//W3C//DTD SVG 1.1//EN"
 "http://www.w3.org/Graphics/SVG/1.1/DTD/svg11.dtd">
<!-- Generated by graphviz version 8.0.1 (20230327.1645)
 -->
<!-- Pages: 1 -->
<svg width="1138pt" height="342pt"
 viewBox="0.00 0.00 1137.59 342.00" xmlns="http://www.w3.org/2000/svg" xmlns:xlink="http://www.w3.org/1999/xlink">
<g id="graph0" class="graph" transform="scale(1 1) rotate(0) translate(4 338)">
<polygon fill="white" stroke="none" points="-4,4 -4,-338 1133.59,-338 1133.59,4 -4,4"/>
<!-- 1553184178240 -->
<g id="node1" class="node">
<title>1553184178240</title>
<polygon fill="none" stroke="black" points="639.59,-88.5 639.59,-157.5 821.59,-157.5 821.59,-88.5 639.59,-88.5"/>
<text text-anchor="middle" x="730.59" y="-142.3" font-family="Times New Roman,serif" font-size="14.00">tensor=[1.2 0.13]</text>
<polyline fill="none" stroke="black" points="639.59,-134.5 821.59,-134.5"/>
<text text-anchor="middle" x="730.59" y="-119.3" font-family="Times New Roman,serif" font-size="14.00">req_grad=True, is_leaf=False</text>
<polyline fill="none" stroke="black" points="639.59,-111.5 821.59,-111.5"/>
<text text-anchor="middle" x="730.59" y="-96.3" font-family="Times New Roman,serif" font-size="14.00">grad=[1. 1.]</text>
</g>
<!-- 1553184178432&lt;Add&gt; -->
<g id="node7" class="node">
<title>1553184178432&lt;Add&gt;</title>
<ellipse fill="none" stroke="black" cx="884.59" cy="-167" rx="27" ry="18"/>
<text text-anchor="start" x="872.09" y="-163.3" font-family="Times New Roman,serif" font-size="14.00">Add</text>
</g>
<!-- 1553184178240&#45;&gt;1553184178432&lt;Add&gt; -->
<g id="edge6" class="edge">
<title>1553184178240&#45;&gt;1553184178432&lt;Add&gt;</title>
<path fill="none" stroke="black" d="M821.33,-148.98C831.07,-151.8 840.5,-154.53 848.95,-156.97"/>
<polygon fill="black" stroke="black" points="847.86,-160.59 858.44,-160.01 849.81,-153.87 847.86,-160.59"/>
</g>
<!-- 1553184178240&lt;Mul&gt; -->
<g id="node2" class="node">
<title>1553184178240&lt;Mul&gt;</title>
<ellipse fill="none" stroke="black" cx="576.59" cy="-123" rx="27" ry="18"/>
<text text-anchor="start" x="565.59" y="-119.3" font-family="Times New Roman,serif" font-size="14.00">Mul</text>
</g>
<!-- 1553184178240&lt;Mul&gt;&#45;&gt;1553184178240 -->
<g id="edge1" class="edge">
<title>1553184178240&lt;Mul&gt;&#45;&gt;1553184178240</title>
<path fill="none" stroke="black" d="M604.07,-123C611.47,-123 619.97,-123 629,-123"/>
<polygon fill="black" stroke="black" points="628.79,-126.5 638.79,-123 628.79,-119.5 628.79,-126.5"/>
</g>
<!-- 1552877141152 -->
<g id="node3" class="node">
<title>1552877141152</title>
<polygon fill="none" stroke="black" points="639.59,-176.5 639.59,-245.5 821.59,-245.5 821.59,-176.5 639.59,-176.5"/>
<text text-anchor="middle" x="730.59" y="-230.3" font-family="Times New Roman,serif" font-size="14.00">tensor=[128. 30.]</text>
<polyline fill="none" stroke="black" points="639.59,-222.5 821.59,-222.5"/>
<text text-anchor="middle" x="730.59" y="-207.3" font-family="Times New Roman,serif" font-size="14.00">req_grad=True, is_leaf=False</text>
<polyline fill="none" stroke="black" points="639.59,-199.5 821.59,-199.5"/>
<text text-anchor="middle" x="730.59" y="-184.3" font-family="Times New Roman,serif" font-size="14.00">grad=[1. 1.]</text>
</g>
<!-- 1552877141152&#45;&gt;1553184178432&lt;Add&gt; -->
<g id="edge11" class="edge">
<title>1552877141152&#45;&gt;1553184178432&lt;Add&gt;</title>
<path fill="none" stroke="black" d="M821.33,-185.02C831.07,-182.2 840.5,-179.47 848.95,-177.03"/>
<polygon fill="black" stroke="black" points="849.81,-180.13 858.44,-173.99 847.86,-173.41 849.81,-180.13"/>
</g>
<!-- 1552877141152&lt;Add&gt; -->
<g id="node4" class="node">
<title>1552877141152&lt;Add&gt;</title>
<ellipse fill="none" stroke="black" cx="576.59" cy="-211" rx="27" ry="18"/>
<text text-anchor="start" x="564.09" y="-207.3" font-family="Times New Roman,serif" font-size="14.00">Add</text>
</g>
<!-- 1552877141152&lt;Add&gt;&#45;&gt;1552877141152 -->
<g id="edge2" class="edge">
<title>1552877141152&lt;Add&gt;&#45;&gt;1552877141152</title>
<path fill="none" stroke="black" d="M604.07,-211C611.47,-211 619.97,-211 629,-211"/>
<polygon fill="black" stroke="black" points="628.79,-214.5 638.79,-211 628.79,-207.5 628.79,-214.5"/>
</g>
<!-- 1553184124112 -->
<g id="node5" class="node">
<title>1553184124112</title>
<polygon fill="none" stroke="black" points="0,-88.5 0,-157.5 179,-157.5 179,-88.5 0,-88.5"/>
<text text-anchor="middle" x="89.5" y="-142.3" font-family="Times New Roman,serif" font-size="14.00">tensor=[5. 3.]</text>
<polyline fill="none" stroke="black" points="0,-134.5 179,-134.5"/>
<text text-anchor="middle" x="89.5" y="-119.3" font-family="Times New Roman,serif" font-size="14.00">req_grad=True, is_leaf=True</text>
<polyline fill="none" stroke="black" points="0,-111.5 179,-111.5"/>
<text text-anchor="middle" x="89.5" y="-96.3" font-family="Times New Roman,serif" font-size="14.00">grad=[74.76 26.96]</text>
</g>
<!-- 1552877442336&lt;Pow(&#45;1)&gt; -->
<g id="node9" class="node">
<title>1552877442336&lt;Pow(&#45;1)&gt;</title>
<ellipse fill="none" stroke="black" cx="255.3" cy="-96" rx="40.09" ry="18"/>
<text text-anchor="start" x="232.3" y="-92.3" font-family="Times New Roman,serif" font-size="14.00">Pow(&#45;1)</text>
</g>
<!-- 1553184124112&#45;&gt;1552877442336&lt;Pow(&#45;1)&gt; -->
<g id="edge8" class="edge">
<title>1553184124112&#45;&gt;1552877442336&lt;Pow(&#45;1)&gt;</title>
<path fill="none" stroke="black" d="M178.63,-108.47C188.21,-106.89 197.68,-105.33 206.51,-103.88"/>
<polygon fill="black" stroke="black" points="207.01,-107.18 216.3,-102.1 205.87,-100.27 207.01,-107.18"/>
</g>
<!-- 1553184124832&lt;Pow(3)&gt; -->
<g id="node13" class="node">
<title>1553184124832&lt;Pow(3)&gt;</title>
<ellipse fill="none" stroke="black" cx="255.3" cy="-180" rx="37.89" ry="18"/>
<text text-anchor="start" x="234.3" y="-176.3" font-family="Times New Roman,serif" font-size="14.00">Pow(3)</text>
</g>
<!-- 1553184124112&#45;&gt;1553184124832&lt;Pow(3)&gt; -->
<g id="edge7" class="edge">
<title>1553184124112&#45;&gt;1553184124832&lt;Pow(3)&gt;</title>
<path fill="none" stroke="black" d="M178.63,-153.67C190.9,-157.94 202.98,-162.14 213.76,-165.89"/>
<polygon fill="black" stroke="black" points="212.47,-169.5 223.07,-169.48 214.77,-162.89 212.47,-169.5"/>
</g>
<!-- 1553184178432 -->
<g id="node6" class="node">
<title>1553184178432</title>
<polygon fill="none" stroke="black" points="947.59,-132.5 947.59,-201.5 1129.59,-201.5 1129.59,-132.5 947.59,-132.5"/>
<text text-anchor="middle" x="1038.59" y="-186.3" font-family="Times New Roman,serif" font-size="14.00">tensor=[129.2 30.13]</text>
<polyline fill="none" stroke="black" points="947.59,-178.5 1129.59,-178.5"/>
<text text-anchor="middle" x="1038.59" y="-163.3" font-family="Times New Roman,serif" font-size="14.00">req_grad=True, is_leaf=False</text>
<polyline fill="none" stroke="black" points="947.59,-155.5 1129.59,-155.5"/>
<text text-anchor="middle" x="1038.59" y="-140.3" font-family="Times New Roman,serif" font-size="14.00">grad=[1. 1.]</text>
</g>
<!-- 1553184178432&lt;Add&gt;&#45;&gt;1553184178432 -->
<g id="edge3" class="edge">
<title>1553184178432&lt;Add&gt;&#45;&gt;1553184178432</title>
<path fill="none" stroke="black" d="M912.07,-167C919.47,-167 927.97,-167 937,-167"/>
<polygon fill="black" stroke="black" points="936.79,-170.5 946.79,-167 936.79,-163.5 936.79,-170.5"/>
</g>
<!-- 1552877442336 -->
<g id="node8" class="node">
<title>1552877442336</title>
<polygon fill="none" stroke="black" points="331.59,-0.5 331.59,-69.5 513.59,-69.5 513.59,-0.5 331.59,-0.5"/>
<text text-anchor="middle" x="422.59" y="-54.3" font-family="Times New Roman,serif" font-size="14.00">tensor=[0.2 0.33]</text>
<polyline fill="none" stroke="black" points="331.59,-46.5 513.59,-46.5"/>
<text text-anchor="middle" x="422.59" y="-31.3" font-family="Times New Roman,serif" font-size="14.00">req_grad=True, is_leaf=False</text>
<polyline fill="none" stroke="black" points="331.59,-23.5 513.59,-23.5"/>
<text text-anchor="middle" x="422.59" y="-8.3" font-family="Times New Roman,serif" font-size="14.00">grad=[6. 0.4]</text>
</g>
<!-- 1552877442336&#45;&gt;1553184178240&lt;Mul&gt; -->
<g id="edge12" class="edge">
<title>1552877442336&#45;&gt;1553184178240&lt;Mul&gt;</title>
<path fill="none" stroke="black" d="M496.35,-69.29C502.25,-72.46 508.06,-75.71 513.59,-79 525.83,-86.27 538.75,-95.22 549.62,-103.14"/>
<polygon fill="black" stroke="black" points="547.08,-106.36 557.2,-109.5 551.25,-100.74 547.08,-106.36"/>
</g>
<!-- 1552877442336&lt;Pow(&#45;1)&gt;&#45;&gt;1552877442336 -->
<g id="edge4" class="edge">
<title>1552877442336&lt;Pow(&#45;1)&gt;&#45;&gt;1552877442336</title>
<path fill="none" stroke="black" d="M287,-84.67C297.17,-80.92 309.1,-76.51 321.58,-71.91"/>
<polygon fill="black" stroke="black" points="322.52,-74.92 330.69,-68.18 320.09,-68.36 322.52,-74.92"/>
</g>
<!-- 1552877140768 -->
<g id="node10" class="node">
<title>1552877140768</title>
<polygon fill="none" stroke="black" points="331.59,-264.5 331.59,-333.5 513.59,-333.5 513.59,-264.5 331.59,-264.5"/>
<text text-anchor="middle" x="422.59" y="-318.3" font-family="Times New Roman,serif" font-size="14.00">tensor=3.0</text>
<polyline fill="none" stroke="black" points="331.59,-310.5 513.59,-310.5"/>
<text text-anchor="middle" x="422.59" y="-295.3" font-family="Times New Roman,serif" font-size="14.00">req_grad=False, is_leaf=True</text>
<polyline fill="none" stroke="black" points="331.59,-287.5 513.59,-287.5"/>
<text text-anchor="middle" x="422.59" y="-272.3" font-family="Times New Roman,serif" font-size="14.00">grad=None</text>
</g>
<!-- 1552877140768&#45;&gt;1552877141152&lt;Add&gt; -->
<g id="edge9" class="edge">
<title>1552877140768&#45;&gt;1552877141152&lt;Add&gt;</title>
<path fill="none" stroke="black" d="M496.35,-264.71C502.25,-261.54 508.06,-258.29 513.59,-255 525.83,-247.73 538.75,-238.78 549.62,-230.86"/>
<polygon fill="black" stroke="black" points="551.25,-233.26 557.2,-224.5 547.08,-227.64 551.25,-233.26"/>
</g>
<!-- 1553184123248 -->
<g id="node11" class="node">
<title>1553184123248</title>
<polygon fill="none" stroke="black" points="333.09,-88.5 333.09,-157.5 512.09,-157.5 512.09,-88.5 333.09,-88.5"/>
<text text-anchor="middle" x="422.59" y="-142.3" font-family="Times New Roman,serif" font-size="14.00">tensor=[6. 0.4]</text>
<polyline fill="none" stroke="black" points="333.09,-134.5 512.09,-134.5"/>
<text text-anchor="middle" x="422.59" y="-119.3" font-family="Times New Roman,serif" font-size="14.00">req_grad=True, is_leaf=True</text>
<polyline fill="none" stroke="black" points="333.09,-111.5 512.09,-111.5"/>
<text text-anchor="middle" x="422.59" y="-96.3" font-family="Times New Roman,serif" font-size="14.00">grad=[0.2 0.33]</text>
</g>
<!-- 1553184123248&#45;&gt;1553184178240&lt;Mul&gt; -->
<g id="edge13" class="edge">
<title>1553184123248&#45;&gt;1553184178240&lt;Mul&gt;</title>
<path fill="none" stroke="black" d="M512.01,-123C521.25,-123 530.23,-123 538.39,-123"/>
<polygon fill="black" stroke="black" points="538.33,-126.5 548.33,-123 538.33,-119.5 538.33,-126.5"/>
</g>
<!-- 1553184124832 -->
<g id="node12" class="node">
<title>1553184124832</title>
<polygon fill="none" stroke="black" points="331.59,-176.5 331.59,-245.5 513.59,-245.5 513.59,-176.5 331.59,-176.5"/>
<text text-anchor="middle" x="422.59" y="-230.3" font-family="Times New Roman,serif" font-size="14.00">tensor=[125. 27.]</text>
<polyline fill="none" stroke="black" points="331.59,-222.5 513.59,-222.5"/>
<text text-anchor="middle" x="422.59" y="-207.3" font-family="Times New Roman,serif" font-size="14.00">req_grad=True, is_leaf=False</text>
<polyline fill="none" stroke="black" points="331.59,-199.5 513.59,-199.5"/>
<text text-anchor="middle" x="422.59" y="-184.3" font-family="Times New Roman,serif" font-size="14.00">grad=[1. 1.]</text>
</g>
<!-- 1553184124832&#45;&gt;1552877141152&lt;Add&gt; -->
<g id="edge10" class="edge">
<title>1553184124832&#45;&gt;1552877141152&lt;Add&gt;</title>
<path fill="none" stroke="black" d="M513.33,-211C522.14,-211 530.69,-211 538.5,-211"/>
<polygon fill="black" stroke="black" points="538.34,-214.5 548.34,-211 538.34,-207.5 538.34,-214.5"/>
</g>
<!-- 1553184124832&lt;Pow(3)&gt;&#45;&gt;1553184124832 -->
<g id="edge5" class="edge">
<title>1553184124832&lt;Pow(3)&gt;&#45;&gt;1553184124832</title>
<path fill="none" stroke="black" d="M290.95,-186.5C300.04,-188.2 310.31,-190.13 321,-192.14"/>
<polygon fill="black" stroke="black" points="320.34,-195.76 330.81,-194.16 321.63,-188.88 320.34,-195.76"/>
</g>
</g>
</svg>
