<?xml version="1.0" encoding="UTF-8" standalone="no"?>
<!DOCTYPE svg PUBLIC "-//W3C//DTD SVG 1.1//EN"
 "http://www.w3.org/Graphics/SVG/1.1/DTD/svg11.dtd">
<!-- Generated by graphviz version 8.0.1 (20230327.1645)
 -->
<!-- Pages: 1 -->
<svg width="1154pt" height="434pt"
 viewBox="0.00 0.00 1153.59 434.00" xmlns="http://www.w3.org/2000/svg" xmlns:xlink="http://www.w3.org/1999/xlink">
<g id="graph0" class="graph" transform="scale(1 1) rotate(0) translate(4 430)">
<polygon fill="white" stroke="none" points="-4,4 -4,-430 1149.59,-430 1149.59,4 -4,4"/>
<!-- 2273336084032 -->
<g id="node1" class="node">
<title>2273336084032</title>
<polygon fill="none" stroke="black" points="335.59,-333.5 335.59,-425.5 521.59,-425.5 521.59,-333.5 335.59,-333.5"/>
<text text-anchor="start" x="406.59" y="-411.3" font-family="Times New Roman,serif" font-weight="bold" font-size="14.00">Tensor</text>
<polyline fill="none" stroke="black" points="335.59,-402.5 521.59,-402.5"/>
<text text-anchor="start" x="404.09" y="-387.3" font-family="Times New Roman,serif" font-size="14.00">data=3.0</text>
<polyline fill="none" stroke="black" points="335.59,-379.5 521.59,-379.5"/>
<text text-anchor="start" x="343.59" y="-364.3" font-family="Times New Roman,serif" font-size="14.00">req_grad=False &#160;&#160;is_leaf=True</text>
<polyline fill="none" stroke="black" points="335.59,-356.5 521.59,-356.5"/>
<text text-anchor="start" x="396.59" y="-341.3" font-family="Times New Roman,serif" font-size="14.00">grad=None</text>
</g>
<!-- 2273336083936&lt;Add&gt; -->
<g id="node12" class="node">
<title>2273336083936&lt;Add&gt;</title>
<ellipse fill="none" stroke="black" cx="584.59" cy="-268.5" rx="27" ry="18"/>
<text text-anchor="start" x="572.09" y="-264.8" font-family="Times New Roman,serif" font-size="14.00">Add</text>
</g>
<!-- 2273336084032&#45;&gt;2273336083936&lt;Add&gt; -->
<g id="edge9" class="edge">
<title>2273336084032&#45;&gt;2273336083936&lt;Add&gt;</title>
<path fill="none" stroke="black" d="M507.07,-333.75C512.05,-330.38 516.93,-326.94 521.59,-323.5 535.19,-313.46 549.36,-301.05 560.72,-290.56"/>
<polygon fill="black" stroke="black" points="562.54,-293.71 567.45,-284.32 557.76,-288.61 562.54,-293.71"/>
</g>
<!-- 2273336084608 -->
<g id="node2" class="node">
<title>2273336084608</title>
<polygon fill="none" stroke="black" points="337.09,-0.5 337.09,-92.5 520.09,-92.5 520.09,-0.5 337.09,-0.5"/>
<text text-anchor="start" x="406.59" y="-78.3" font-family="Times New Roman,serif" font-weight="bold" font-size="14.00">Tensor</text>
<polyline fill="none" stroke="black" points="337.09,-69.5 520.09,-69.5"/>
<text text-anchor="start" x="388.59" y="-54.3" font-family="Times New Roman,serif" font-size="14.00">data=[6. , 0.4]</text>
<polyline fill="none" stroke="black" points="337.09,-46.5 520.09,-46.5"/>
<text text-anchor="start" x="345.09" y="-31.3" font-family="Times New Roman,serif" font-size="14.00">req_grad=True &#160;&#160;is_leaf=True</text>
<polyline fill="none" stroke="black" points="337.09,-23.5 520.09,-23.5"/>
<text text-anchor="start" x="381.09" y="-8.3" font-family="Times New Roman,serif" font-size="14.00">grad=[0.2 , 0.33]</text>
</g>
<!-- 2273336012656&lt;Mul&gt; -->
<g id="node10" class="node">
<title>2273336012656&lt;Mul&gt;</title>
<ellipse fill="none" stroke="black" cx="584.59" cy="-157.5" rx="27" ry="18"/>
<text text-anchor="start" x="573.59" y="-153.8" font-family="Times New Roman,serif" font-size="14.00">Mul</text>
</g>
<!-- 2273336084608&#45;&gt;2273336012656&lt;Mul&gt; -->
<g id="edge8" class="edge">
<title>2273336084608&#45;&gt;2273336012656&lt;Mul&gt;</title>
<path fill="none" stroke="black" d="M508.56,-92.3C513.03,-95.32 517.4,-98.4 521.59,-101.5 535.48,-111.77 549.87,-124.6 561.28,-135.39"/>
<polygon fill="black" stroke="black" points="558.38,-137.42 568.02,-141.82 563.23,-132.37 558.38,-137.42"/>
</g>
<!-- 2273336011936 -->
<g id="node3" class="node">
<title>2273336011936</title>
<polygon fill="none" stroke="black" points="959.59,-166.5 959.59,-258.5 1145.59,-258.5 1145.59,-166.5 959.59,-166.5"/>
<text text-anchor="start" x="1030.59" y="-244.3" font-family="Times New Roman,serif" font-weight="bold" font-size="14.00">Tensor</text>
<polyline fill="none" stroke="black" points="959.59,-235.5 1145.59,-235.5"/>
<text text-anchor="start" x="993.59" y="-220.3" font-family="Times New Roman,serif" font-size="14.00">data=[129.2 , &#160;30.13]</text>
<polyline fill="none" stroke="black" points="959.59,-212.5 1145.59,-212.5"/>
<text text-anchor="start" x="967.59" y="-197.3" font-family="Times New Roman,serif" font-size="14.00">req_grad=True &#160;&#160;is_leaf=False</text>
<polyline fill="none" stroke="black" points="959.59,-189.5 1145.59,-189.5"/>
<text text-anchor="start" x="1017.09" y="-174.3" font-family="Times New Roman,serif" font-size="14.00">grad=[1., 1.]</text>
</g>
<!-- 2273336011936&lt;Add&gt; -->
<g id="node4" class="node">
<title>2273336011936&lt;Add&gt;</title>
<ellipse fill="none" stroke="black" cx="896.59" cy="-212.5" rx="27" ry="18"/>
<text text-anchor="start" x="884.09" y="-208.8" font-family="Times New Roman,serif" font-size="14.00">Add</text>
</g>
<!-- 2273336011936&lt;Add&gt;&#45;&gt;2273336011936 -->
<g id="edge1" class="edge">
<title>2273336011936&lt;Add&gt;&#45;&gt;2273336011936</title>
<path fill="none" stroke="black" d="M924.07,-212.5C931.42,-212.5 939.88,-212.5 948.86,-212.5"/>
<polygon fill="black" stroke="black" points="948.62,-216 958.62,-212.5 948.62,-209 948.62,-216"/>
</g>
<!-- 2273336012464 -->
<g id="node5" class="node">
<title>2273336012464</title>
<polygon fill="none" stroke="black" points="335.59,-111.5 335.59,-203.5 521.59,-203.5 521.59,-111.5 335.59,-111.5"/>
<text text-anchor="start" x="406.59" y="-189.3" font-family="Times New Roman,serif" font-weight="bold" font-size="14.00">Tensor</text>
<polyline fill="none" stroke="black" points="335.59,-180.5 521.59,-180.5"/>
<text text-anchor="start" x="381.59" y="-165.3" font-family="Times New Roman,serif" font-size="14.00">data=[0.2 , 0.33]</text>
<polyline fill="none" stroke="black" points="335.59,-157.5 521.59,-157.5"/>
<text text-anchor="start" x="343.59" y="-142.3" font-family="Times New Roman,serif" font-size="14.00">req_grad=True &#160;&#160;is_leaf=False</text>
<polyline fill="none" stroke="black" points="335.59,-134.5 521.59,-134.5"/>
<text text-anchor="start" x="387.59" y="-119.3" font-family="Times New Roman,serif" font-size="14.00">grad=[6. , 0.4]</text>
</g>
<!-- 2273336012464&#45;&gt;2273336012656&lt;Mul&gt; -->
<g id="edge12" class="edge">
<title>2273336012464&#45;&gt;2273336012656&lt;Mul&gt;</title>
<path fill="none" stroke="black" d="M521.4,-157.5C530.14,-157.5 538.62,-157.5 546.36,-157.5"/>
<polygon fill="black" stroke="black" points="546.11,-161 556.11,-157.5 546.11,-154 546.11,-161"/>
</g>
<!-- 2273336012464&lt;Pow(&#45;1)&gt; -->
<g id="node6" class="node">
<title>2273336012464&lt;Pow(&#45;1)&gt;</title>
<ellipse fill="none" stroke="black" cx="259.3" cy="-171.5" rx="40.09" ry="18"/>
<text text-anchor="start" x="236.3" y="-167.8" font-family="Times New Roman,serif" font-size="14.00">Pow(&#45;1)</text>
</g>
<!-- 2273336012464&lt;Pow(&#45;1)&gt;&#45;&gt;2273336012464 -->
<g id="edge2" class="edge">
<title>2273336012464&lt;Pow(&#45;1)&gt;&#45;&gt;2273336012464</title>
<path fill="none" stroke="black" d="M299.1,-168.25C307.08,-167.59 315.83,-166.85 324.89,-166.09"/>
<polygon fill="black" stroke="black" points="324.98,-169.52 334.66,-165.19 324.4,-162.54 324.98,-169.52"/>
</g>
<!-- 2273336084800 -->
<g id="node7" class="node">
<title>2273336084800</title>
<polygon fill="none" stroke="black" points="335.59,-222.5 335.59,-314.5 521.59,-314.5 521.59,-222.5 335.59,-222.5"/>
<text text-anchor="start" x="406.59" y="-300.3" font-family="Times New Roman,serif" font-weight="bold" font-size="14.00">Tensor</text>
<polyline fill="none" stroke="black" points="335.59,-291.5 521.59,-291.5"/>
<text text-anchor="start" x="381.59" y="-276.3" font-family="Times New Roman,serif" font-size="14.00">data=[125., &#160;27.]</text>
<polyline fill="none" stroke="black" points="335.59,-268.5 521.59,-268.5"/>
<text text-anchor="start" x="343.59" y="-253.3" font-family="Times New Roman,serif" font-size="14.00">req_grad=True &#160;&#160;is_leaf=False</text>
<polyline fill="none" stroke="black" points="335.59,-245.5 521.59,-245.5"/>
<text text-anchor="start" x="393.09" y="-230.3" font-family="Times New Roman,serif" font-size="14.00">grad=[1., 1.]</text>
</g>
<!-- 2273336084800&#45;&gt;2273336083936&lt;Add&gt; -->
<g id="edge11" class="edge">
<title>2273336084800&#45;&gt;2273336083936&lt;Add&gt;</title>
<path fill="none" stroke="black" d="M521.4,-268.5C530.14,-268.5 538.62,-268.5 546.36,-268.5"/>
<polygon fill="black" stroke="black" points="546.11,-272 556.11,-268.5 546.11,-265 546.11,-272"/>
</g>
<!-- 2273336084800&lt;Pow(3)&gt; -->
<g id="node8" class="node">
<title>2273336084800&lt;Pow(3)&gt;</title>
<ellipse fill="none" stroke="black" cx="259.3" cy="-253.5" rx="37.89" ry="18"/>
<text text-anchor="start" x="238.3" y="-249.8" font-family="Times New Roman,serif" font-size="14.00">Pow(3)</text>
</g>
<!-- 2273336084800&lt;Pow(3)&gt;&#45;&gt;2273336084800 -->
<g id="edge3" class="edge">
<title>2273336084800&lt;Pow(3)&gt;&#45;&gt;2273336084800</title>
<path fill="none" stroke="black" d="M297.01,-256.79C305.56,-257.56 315.07,-258.41 324.96,-259.3"/>
<polygon fill="black" stroke="black" points="324.53,-262.86 334.8,-260.27 325.16,-255.89 324.53,-262.86"/>
</g>
<!-- 2273336012656 -->
<g id="node9" class="node">
<title>2273336012656</title>
<polygon fill="none" stroke="black" points="647.59,-111.5 647.59,-203.5 833.59,-203.5 833.59,-111.5 647.59,-111.5"/>
<text text-anchor="start" x="718.59" y="-189.3" font-family="Times New Roman,serif" font-weight="bold" font-size="14.00">Tensor</text>
<polyline fill="none" stroke="black" points="647.59,-180.5 833.59,-180.5"/>
<text text-anchor="start" x="693.59" y="-165.3" font-family="Times New Roman,serif" font-size="14.00">data=[1.2 , 0.13]</text>
<polyline fill="none" stroke="black" points="647.59,-157.5 833.59,-157.5"/>
<text text-anchor="start" x="655.59" y="-142.3" font-family="Times New Roman,serif" font-size="14.00">req_grad=True &#160;&#160;is_leaf=False</text>
<polyline fill="none" stroke="black" points="647.59,-134.5 833.59,-134.5"/>
<text text-anchor="start" x="705.09" y="-119.3" font-family="Times New Roman,serif" font-size="14.00">grad=[1., 1.]</text>
</g>
<!-- 2273336012656&#45;&gt;2273336011936&lt;Add&gt; -->
<g id="edge6" class="edge">
<title>2273336012656&#45;&gt;2273336011936&lt;Add&gt;</title>
<path fill="none" stroke="black" d="M833.4,-190.29C843.45,-193.88 853.16,-197.34 861.79,-200.43"/>
<polygon fill="black" stroke="black" points="860.51,-204.04 871.1,-204.11 862.86,-197.45 860.51,-204.04"/>
</g>
<!-- 2273336012656&lt;Mul&gt;&#45;&gt;2273336012656 -->
<g id="edge4" class="edge">
<title>2273336012656&lt;Mul&gt;&#45;&gt;2273336012656</title>
<path fill="none" stroke="black" d="M612.07,-157.5C619.42,-157.5 627.88,-157.5 636.86,-157.5"/>
<polygon fill="black" stroke="black" points="636.62,-161 646.62,-157.5 636.62,-154 636.62,-161"/>
</g>
<!-- 2273336083936 -->
<g id="node11" class="node">
<title>2273336083936</title>
<polygon fill="none" stroke="black" points="647.59,-222.5 647.59,-314.5 833.59,-314.5 833.59,-222.5 647.59,-222.5"/>
<text text-anchor="start" x="718.59" y="-300.3" font-family="Times New Roman,serif" font-weight="bold" font-size="14.00">Tensor</text>
<polyline fill="none" stroke="black" points="647.59,-291.5 833.59,-291.5"/>
<text text-anchor="start" x="693.59" y="-276.3" font-family="Times New Roman,serif" font-size="14.00">data=[128., &#160;30.]</text>
<polyline fill="none" stroke="black" points="647.59,-268.5 833.59,-268.5"/>
<text text-anchor="start" x="655.59" y="-253.3" font-family="Times New Roman,serif" font-size="14.00">req_grad=True &#160;&#160;is_leaf=False</text>
<polyline fill="none" stroke="black" points="647.59,-245.5 833.59,-245.5"/>
<text text-anchor="start" x="705.09" y="-230.3" font-family="Times New Roman,serif" font-size="14.00">grad=[1., 1.]</text>
</g>
<!-- 2273336083936&#45;&gt;2273336011936&lt;Add&gt; -->
<g id="edge7" class="edge">
<title>2273336083936&#45;&gt;2273336011936&lt;Add&gt;</title>
<path fill="none" stroke="black" d="M833.4,-235.12C843.66,-231.39 853.55,-227.79 862.31,-224.6"/>
<polygon fill="black" stroke="black" points="863.19,-227.64 871.39,-220.94 860.8,-221.07 863.19,-227.64"/>
</g>
<!-- 2273336083936&lt;Add&gt;&#45;&gt;2273336083936 -->
<g id="edge5" class="edge">
<title>2273336083936&lt;Add&gt;&#45;&gt;2273336083936</title>
<path fill="none" stroke="black" d="M612.07,-268.5C619.42,-268.5 627.88,-268.5 636.86,-268.5"/>
<polygon fill="black" stroke="black" points="636.62,-272 646.62,-268.5 636.62,-265 636.62,-272"/>
</g>
<!-- 2273336082928 -->
<g id="node13" class="node">
<title>2273336082928</title>
<polygon fill="none" stroke="black" points="0,-166.5 0,-258.5 183,-258.5 183,-166.5 0,-166.5"/>
<text text-anchor="start" x="69.5" y="-244.3" font-family="Times New Roman,serif" font-weight="bold" font-size="14.00">Tensor</text>
<polyline fill="none" stroke="black" points="0,-235.5 183,-235.5"/>
<text text-anchor="start" x="56.5" y="-220.3" font-family="Times New Roman,serif" font-size="14.00">data=[5., 3.]</text>
<polyline fill="none" stroke="black" points="0,-212.5 183,-212.5"/>
<text text-anchor="start" x="8" y="-197.3" font-family="Times New Roman,serif" font-size="14.00">req_grad=True &#160;&#160;is_leaf=True</text>
<polyline fill="none" stroke="black" points="0,-189.5 183,-189.5"/>
<text text-anchor="start" x="35.5" y="-174.3" font-family="Times New Roman,serif" font-size="14.00">grad=[74.76, 26.96]</text>
</g>
<!-- 2273336082928&#45;&gt;2273336012464&lt;Pow(&#45;1)&gt; -->
<g id="edge13" class="edge">
<title>2273336082928&#45;&gt;2273336012464&lt;Pow(&#45;1)&gt;</title>
<path fill="none" stroke="black" d="M182.68,-190.2C193.27,-187.58 203.71,-185 213.28,-182.63"/>
<polygon fill="black" stroke="black" points="213.82,-185.86 222.69,-180.06 212.14,-179.06 213.82,-185.86"/>
</g>
<!-- 2273336082928&#45;&gt;2273336084800&lt;Pow(3)&gt; -->
<g id="edge10" class="edge">
<title>2273336082928&#45;&gt;2273336084800&lt;Pow(3)&gt;</title>
<path fill="none" stroke="black" d="M182.68,-234.8C193.83,-237.56 204.81,-240.27 214.79,-242.74"/>
<polygon fill="black" stroke="black" points="213.65,-246.31 224.2,-245.32 215.33,-239.52 213.65,-246.31"/>
</g>
</g>
</svg>
