<?xml version="1.0" encoding="UTF-8" standalone="no"?>
<!DOCTYPE svg PUBLIC "-//W3C//DTD SVG 1.1//EN"
 "http://www.w3.org/Graphics/SVG/1.1/DTD/svg11.dtd">
<!-- Generated by graphviz version 8.0.1 (20230327.1645)
 -->
<!-- Pages: 1 -->
<svg width="1865pt" height="250pt"
 viewBox="0.00 0.00 1865.19 250.00" xmlns="http://www.w3.org/2000/svg" xmlns:xlink="http://www.w3.org/1999/xlink">
<g id="graph0" class="graph" transform="scale(1 1) rotate(0) translate(4 246)">
<polygon fill="white" stroke="none" points="-4,4 -4,-246 1861.19,-246 1861.19,4 -4,4"/>
<!-- 2012699735568 -->
<g id="node1" class="node">
<title>2012699735568</title>
<polygon fill="none" stroke="black" points="1675.19,-165.5 1675.19,-211.5 1857.19,-211.5 1857.19,-165.5 1675.19,-165.5"/>
<text text-anchor="middle" x="1766.19" y="-196.3" font-family="Times New Roman,serif" font-size="14.00">tensor=923.2, req_grad=True</text>
<polyline fill="none" stroke="black" points="1675.19,-188.5 1857.19,-188.5"/>
<text text-anchor="middle" x="1766.19" y="-173.3" font-family="Times New Roman,serif" font-size="14.00">grad=1.0</text>
</g>
<!-- 2012699735568&lt;Sum&gt; -->
<g id="node2" class="node">
<title>2012699735568&lt;Sum&gt;</title>
<ellipse fill="none" stroke="black" cx="1611.89" cy="-188.5" rx="27.1" ry="18"/>
<text text-anchor="start" x="1598.89" y="-184.8" font-family="Times New Roman,serif" font-size="14.00">Sum</text>
</g>
<!-- 2012699735568&lt;Sum&gt;&#45;&gt;2012699735568 -->
<g id="edge1" class="edge">
<title>2012699735568&lt;Sum&gt;&#45;&gt;2012699735568</title>
<path fill="none" stroke="black" d="M1639.42,-188.5C1646.83,-188.5 1655.35,-188.5 1664.4,-188.5"/>
<polygon fill="black" stroke="black" points="1664.21,-192 1674.21,-188.5 1664.21,-185 1664.21,-192"/>
</g>
<!-- 2012699171856 -->
<g id="node3" class="node">
<title>2012699171856</title>
<polygon fill="none" stroke="black" points="337.59,-130.5 337.59,-176.5 543.59,-176.5 543.59,-130.5 337.59,-130.5"/>
<text text-anchor="middle" x="440.59" y="-161.3" font-family="Times New Roman,serif" font-size="14.00">tensor=[0.2 0.33], req_grad=True</text>
<polyline fill="none" stroke="black" points="337.59,-153.5 543.59,-153.5"/>
<text text-anchor="middle" x="440.59" y="-138.3" font-family="Times New Roman,serif" font-size="14.00">grad=[4608. 4.8]</text>
</g>
<!-- 2012699736528&lt;Mul&gt; -->
<g id="node17" class="node">
<title>2012699736528&lt;Mul&gt;</title>
<ellipse fill="none" stroke="black" cx="606.59" cy="-156.5" rx="27" ry="18"/>
<text text-anchor="start" x="595.59" y="-152.8" font-family="Times New Roman,serif" font-size="14.00">Mul</text>
</g>
<!-- 2012699171856&#45;&gt;2012699736528&lt;Mul&gt; -->
<g id="edge13" class="edge">
<title>2012699171856&#45;&gt;2012699736528&lt;Mul&gt;</title>
<path fill="none" stroke="black" d="M543.59,-155.37C552.33,-155.53 560.74,-155.68 568.41,-155.82"/>
<polygon fill="black" stroke="black" points="568.34,-159.34 578.4,-156.02 568.47,-152.34 568.34,-159.34"/>
</g>
<!-- 2012699171856&lt;Pow(&#45;1)&gt; -->
<g id="node4" class="node">
<title>2012699171856&lt;Pow(&#45;1)&gt;</title>
<ellipse fill="none" stroke="black" cx="261.3" cy="-150.5" rx="40.09" ry="18"/>
<text text-anchor="start" x="238.3" y="-146.8" font-family="Times New Roman,serif" font-size="14.00">Pow(&#45;1)</text>
</g>
<!-- 2012699171856&lt;Pow(&#45;1)&gt;&#45;&gt;2012699171856 -->
<g id="edge2" class="edge">
<title>2012699171856&lt;Pow(&#45;1)&gt;&#45;&gt;2012699171856</title>
<path fill="none" stroke="black" d="M301.64,-151.17C309.4,-151.3 317.9,-151.44 326.75,-151.59"/>
<polygon fill="black" stroke="black" points="326.63,-155.11 336.69,-151.78 326.75,-148.11 326.63,-155.11"/>
</g>
<!-- 2012701549520 -->
<g id="node5" class="node">
<title>2012701549520</title>
<polygon fill="none" stroke="black" points="344.59,-195.5 344.59,-241.5 536.59,-241.5 536.59,-195.5 344.59,-195.5"/>
<text text-anchor="middle" x="440.59" y="-226.3" font-family="Times New Roman,serif" font-size="14.00">tensor=[6. 0.4], req_grad=True</text>
<polyline fill="none" stroke="black" points="344.59,-218.5 536.59,-218.5"/>
<text text-anchor="middle" x="440.59" y="-203.3" font-family="Times New Roman,serif" font-size="14.00">grad=[307.2 8. ]</text>
</g>
<!-- 2012699737440&lt;Mul&gt; -->
<g id="node15" class="node">
<title>2012699737440&lt;Mul&gt;</title>
<ellipse fill="none" stroke="black" cx="1273.59" cy="-188.5" rx="27" ry="18"/>
<text text-anchor="start" x="1262.59" y="-184.8" font-family="Times New Roman,serif" font-size="14.00">Mul</text>
</g>
<!-- 2012701549520&#45;&gt;2012699737440&lt;Mul&gt; -->
<g id="edge12" class="edge">
<title>2012701549520&#45;&gt;2012699737440&lt;Mul&gt;</title>
<path fill="none" stroke="black" d="M536.54,-216.74C602.48,-215.67 692.38,-214.5 771.59,-214.5 771.59,-214.5 771.59,-214.5 939.59,-214.5 1047.68,-214.5 1174.91,-200.72 1236.1,-193.22"/>
<polygon fill="black" stroke="black" points="1236.25,-196.61 1245.74,-191.9 1235.38,-189.66 1236.25,-196.61"/>
</g>
<!-- 2012701549520&#45;&gt;2012699736528&lt;Mul&gt; -->
<g id="edge11" class="edge">
<title>2012701549520&#45;&gt;2012699736528&lt;Mul&gt;</title>
<path fill="none" stroke="black" d="M518.87,-195.58C527.28,-192.69 535.66,-189.65 543.59,-186.5 553.99,-182.38 565.06,-177.27 574.93,-172.44"/>
<polygon fill="black" stroke="black" points="576.32,-175.16 583.7,-167.56 573.19,-168.89 576.32,-175.16"/>
</g>
<!-- 2012701549664 -->
<g id="node6" class="node">
<title>2012701549664</title>
<polygon fill="none" stroke="black" points="337.59,-65.5 337.59,-111.5 543.59,-111.5 543.59,-65.5 337.59,-65.5"/>
<text text-anchor="middle" x="440.59" y="-96.3" font-family="Times New Roman,serif" font-size="14.00">tensor=[125. 27.], req_grad=True</text>
<polyline fill="none" stroke="black" points="337.59,-88.5 543.59,-88.5"/>
<text text-anchor="middle" x="440.59" y="-73.3" font-family="Times New Roman,serif" font-size="14.00">grad=[7.2 0.05]</text>
</g>
<!-- 2012701551968&lt;Add&gt; -->
<g id="node13" class="node">
<title>2012701551968&lt;Add&gt;</title>
<ellipse fill="none" stroke="black" cx="606.59" cy="-88.5" rx="27" ry="18"/>
<text text-anchor="start" x="594.09" y="-84.8" font-family="Times New Roman,serif" font-size="14.00">Add</text>
</g>
<!-- 2012701549664&#45;&gt;2012701551968&lt;Add&gt; -->
<g id="edge9" class="edge">
<title>2012701549664&#45;&gt;2012701551968&lt;Add&gt;</title>
<path fill="none" stroke="black" d="M543.59,-88.5C552.24,-88.5 560.58,-88.5 568.18,-88.5"/>
<polygon fill="black" stroke="black" points="568.1,-92 578.1,-88.5 568.1,-85 568.1,-92"/>
</g>
<!-- 2012701549664&lt;Pow(3)&gt; -->
<g id="node7" class="node">
<title>2012701549664&lt;Pow(3)&gt;</title>
<ellipse fill="none" stroke="black" cx="261.3" cy="-93.5" rx="37.89" ry="18"/>
<text text-anchor="start" x="240.3" y="-89.8" font-family="Times New Roman,serif" font-size="14.00">Pow(3)</text>
</g>
<!-- 2012701549664&lt;Pow(3)&gt;&#45;&gt;2012701549664 -->
<g id="edge3" class="edge">
<title>2012701549664&lt;Pow(3)&gt;&#45;&gt;2012701549664</title>
<path fill="none" stroke="black" d="M299.46,-92.45C307.89,-92.21 317.27,-91.95 327.06,-91.67"/>
<polygon fill="black" stroke="black" points="326.94,-95.15 336.83,-91.37 326.74,-88.15 326.94,-95.15"/>
</g>
<!-- 2012701550816 -->
<g id="node8" class="node">
<title>2012701550816</title>
<polygon fill="none" stroke="black" points="0,-97.5 0,-143.5 185,-143.5 185,-97.5 0,-97.5"/>
<text text-anchor="middle" x="92.5" y="-128.3" font-family="Times New Roman,serif" font-size="14.00">tensor=[5. 3.], req_grad=True</text>
<polyline fill="none" stroke="black" points="0,-120.5 185,-120.5"/>
<text text-anchor="middle" x="92.5" y="-105.3" font-family="Times New Roman,serif" font-size="14.00">grad=[355.68 0.91]</text>
</g>
<!-- 2012701550816&#45;&gt;2012699171856&lt;Pow(&#45;1)&gt; -->
<g id="edge16" class="edge">
<title>2012701550816&#45;&gt;2012699171856&lt;Pow(&#45;1)&gt;</title>
<path fill="none" stroke="black" d="M184.71,-136.9C194.33,-138.64 203.82,-140.34 212.64,-141.93"/>
<polygon fill="black" stroke="black" points="211.97,-145.54 222.43,-143.87 213.21,-138.65 211.97,-145.54"/>
</g>
<!-- 2012701550816&#45;&gt;2012701549664&lt;Pow(3)&gt; -->
<g id="edge8" class="edge">
<title>2012701550816&#45;&gt;2012701549664&lt;Pow(3)&gt;</title>
<path fill="none" stroke="black" d="M184.71,-105.74C194.87,-104.09 204.88,-102.47 214.12,-100.97"/>
<polygon fill="black" stroke="black" points="214.66,-104.27 223.97,-99.22 213.54,-97.36 214.66,-104.27"/>
</g>
<!-- 2012699736864 -->
<g id="node9" class="node">
<title>2012699736864</title>
<polygon fill="none" stroke="black" points="1001.59,-139.5 1001.59,-185.5 1210.59,-185.5 1210.59,-139.5 1001.59,-139.5"/>
<text text-anchor="middle" x="1106.09" y="-170.3" font-family="Times New Roman,serif" font-size="14.00">tensor=[153.6 4. ], req_grad=True</text>
<polyline fill="none" stroke="black" points="1001.59,-162.5 1210.59,-162.5"/>
<text text-anchor="middle" x="1106.09" y="-147.3" font-family="Times New Roman,serif" font-size="14.00">grad=[6. 0.4]</text>
</g>
<!-- 2012699736864&#45;&gt;2012699737440&lt;Mul&gt; -->
<g id="edge15" class="edge">
<title>2012699736864&#45;&gt;2012699737440&lt;Mul&gt;</title>
<path fill="none" stroke="black" d="M1210.5,-178.74C1219.64,-180.18 1228.43,-181.56 1236.37,-182.81"/>
<polygon fill="black" stroke="black" points="1235.57,-186.38 1245.99,-184.48 1236.65,-179.47 1235.57,-186.38"/>
</g>
<!-- 2012699736864&lt;Mul&gt; -->
<g id="node10" class="node">
<title>2012699736864&lt;Mul&gt;</title>
<ellipse fill="none" stroke="black" cx="938.59" cy="-156.5" rx="27" ry="18"/>
<text text-anchor="start" x="927.59" y="-152.8" font-family="Times New Roman,serif" font-size="14.00">Mul</text>
</g>
<!-- 2012699736864&lt;Mul&gt;&#45;&gt;2012699736864 -->
<g id="edge4" class="edge">
<title>2012699736864&lt;Mul&gt;&#45;&gt;2012699736864</title>
<path fill="none" stroke="black" d="M965.82,-157.45C973.3,-157.72 981.96,-158.04 991.24,-158.37"/>
<polygon fill="black" stroke="black" points="990.82,-161.9 1000.94,-158.76 991.07,-154.9 990.82,-161.9"/>
</g>
<!-- 2012701551920 -->
<g id="node11" class="node">
<title>2012701551920</title>
<polygon fill="none" stroke="black" points="354.59,-0.5 354.59,-46.5 526.59,-46.5 526.59,-0.5 354.59,-0.5"/>
<text text-anchor="middle" x="440.59" y="-31.3" font-family="Times New Roman,serif" font-size="14.00">tensor=3.0, req_grad=False</text>
<polyline fill="none" stroke="black" points="354.59,-23.5 526.59,-23.5"/>
<text text-anchor="middle" x="440.59" y="-8.3" font-family="Times New Roman,serif" font-size="14.00">grad=None</text>
</g>
<!-- 2012701551920&#45;&gt;2012701551968&lt;Add&gt; -->
<g id="edge14" class="edge">
<title>2012701551920&#45;&gt;2012701551968&lt;Add&gt;</title>
<path fill="none" stroke="black" d="M520.09,-46.5C528.1,-49.33 536.06,-52.35 543.59,-55.5 554.47,-60.06 565.99,-65.88 576.1,-71.37"/>
<polygon fill="black" stroke="black" points="574.23,-74.89 584.67,-76.68 577.62,-68.77 574.23,-74.89"/>
</g>
<!-- 2012701551968 -->
<g id="node12" class="node">
<title>2012701551968</title>
<polygon fill="none" stroke="black" points="669.59,-68.5 669.59,-114.5 875.59,-114.5 875.59,-68.5 669.59,-68.5"/>
<text text-anchor="middle" x="772.59" y="-99.3" font-family="Times New Roman,serif" font-size="14.00">tensor=[128. 30.], req_grad=True</text>
<polyline fill="none" stroke="black" points="669.59,-91.5 875.59,-91.5"/>
<text text-anchor="middle" x="772.59" y="-76.3" font-family="Times New Roman,serif" font-size="14.00">grad=[7.2 0.05]</text>
</g>
<!-- 2012701551968&#45;&gt;2012699736864&lt;Mul&gt; -->
<g id="edge18" class="edge">
<title>2012701551968&#45;&gt;2012699736864&lt;Mul&gt;</title>
<path fill="none" stroke="black" d="M849.3,-114.46C858.24,-117.62 867.17,-120.99 875.59,-124.5 886.33,-128.97 897.73,-134.59 907.79,-139.86"/>
<polygon fill="black" stroke="black" points="905.86,-143.34 916.33,-144.97 909.16,-137.17 905.86,-143.34"/>
</g>
<!-- 2012701551968&lt;Add&gt;&#45;&gt;2012701551968 -->
<g id="edge5" class="edge">
<title>2012701551968&lt;Add&gt;&#45;&gt;2012701551968</title>
<path fill="none" stroke="black" d="M633.94,-88.98C641.3,-89.12 649.78,-89.27 658.85,-89.44"/>
<polygon fill="black" stroke="black" points="658.68,-92.95 668.74,-89.64 658.8,-85.95 658.68,-92.95"/>
</g>
<!-- 2012699737440 -->
<g id="node14" class="node">
<title>2012699737440</title>
<polygon fill="none" stroke="black" points="1336.59,-165.5 1336.59,-211.5 1548.59,-211.5 1548.59,-165.5 1336.59,-165.5"/>
<text text-anchor="middle" x="1442.59" y="-196.3" font-family="Times New Roman,serif" font-size="14.00">tensor=[921.6 1.6], req_grad=True</text>
<polyline fill="none" stroke="black" points="1336.59,-188.5 1548.59,-188.5"/>
<text text-anchor="middle" x="1442.59" y="-173.3" font-family="Times New Roman,serif" font-size="14.00">grad=[1. 1.]</text>
</g>
<!-- 2012699737440&#45;&gt;2012699735568&lt;Sum&gt; -->
<g id="edge10" class="edge">
<title>2012699737440&#45;&gt;2012699735568&lt;Sum&gt;</title>
<path fill="none" stroke="black" d="M1548.12,-188.5C1557.08,-188.5 1565.71,-188.5 1573.54,-188.5"/>
<polygon fill="black" stroke="black" points="1573.39,-192 1583.39,-188.5 1573.39,-185 1573.39,-192"/>
</g>
<!-- 2012699737440&lt;Mul&gt;&#45;&gt;2012699737440 -->
<g id="edge6" class="edge">
<title>2012699737440&lt;Mul&gt;&#45;&gt;2012699737440</title>
<path fill="none" stroke="black" d="M1301.05,-188.5C1308.39,-188.5 1316.86,-188.5 1325.92,-188.5"/>
<polygon fill="black" stroke="black" points="1325.79,-192 1335.79,-188.5 1325.79,-185 1325.79,-192"/>
</g>
<!-- 2012699736528 -->
<g id="node16" class="node">
<title>2012699736528</title>
<polygon fill="none" stroke="black" points="669.59,-133.5 669.59,-179.5 875.59,-179.5 875.59,-133.5 669.59,-133.5"/>
<text text-anchor="middle" x="772.59" y="-164.3" font-family="Times New Roman,serif" font-size="14.00">tensor=[1.2 0.13], req_grad=True</text>
<polyline fill="none" stroke="black" points="669.59,-156.5 875.59,-156.5"/>
<text text-anchor="middle" x="772.59" y="-141.3" font-family="Times New Roman,serif" font-size="14.00">grad=[768. 12.]</text>
</g>
<!-- 2012699736528&#45;&gt;2012699736864&lt;Mul&gt; -->
<g id="edge17" class="edge">
<title>2012699736528&#45;&gt;2012699736864&lt;Mul&gt;</title>
<path fill="none" stroke="black" d="M875.59,-156.5C884.24,-156.5 892.58,-156.5 900.18,-156.5"/>
<polygon fill="black" stroke="black" points="900.1,-160 910.1,-156.5 900.1,-153 900.1,-160"/>
</g>
<!-- 2012699736528&lt;Mul&gt;&#45;&gt;2012699736528 -->
<g id="edge7" class="edge">
<title>2012699736528&lt;Mul&gt;&#45;&gt;2012699736528</title>
<path fill="none" stroke="black" d="M633.94,-156.5C641.3,-156.5 649.78,-156.5 658.85,-156.5"/>
<polygon fill="black" stroke="black" points="658.74,-160 668.74,-156.5 658.74,-153 658.74,-160"/>
</g>
</g>
</svg>
